<svg width="354" height="179" viewBox="0 0 354 179" fill="none" xmlns="http://www.w3.org/2000/svg">
<path d="M103.289 60.0921L97.6954 65.4265L91.6735 70.4918L85.4056 75.288L80.0026 81.0339L74.0204 86.1467L68.2444 91.489L62.04 96.7521L66.5624 103.63L70.3152 110.658L74.0521 117.694L78.3841 124.382L82.3511 131.291L86.8814 137.868L90.3009 145.094L94.7122 151.726L103.36 153.84L112.127 155.462L120.918 156.926L129.741 158.248L138.492 160.092L144.379 154.069L150.187 148.007L156.32 142.261L162.04 136.317L157.042 128.988L151.456 121.588L141.142 123.282L130.693 123.076L131.629 128.996L138.849 128.561L145.244 131.133L144.189 136.768L136.897 140.551L129.511 144.532L122.41 141.184L114.769 139.214L108.002 135.565L104.162 128.624L100.187 121.287L106.288 115.351L109.953 120.836L112.968 126.376L120.886 120.472L117.935 114.077L115.396 107.223L112.937 100.337L109.731 93.5863L99.4885 99.1661L101.75 103.978L92.5938 106.93L89.0394 101.501L85.9451 95.47L90.7531 90.191L96.6243 85.9251L101.321 80.3849L107.01 76.1981L115.706 79.0553L124.782 81.2555L133.946 84.2551L126.877 85.7668L119.792 86.392L120.712 93.5942L128.027 93.7367L135.064 93.5626L142.245 94.2116L148.497 88.1095L154.217 82.0311L147.41 78.3825L139.825 75.8024L132.581 72.4625L125.171 69.4945L117.895 66.2179L110.461 63.2975L103.289 60.0921Z" fill="#FEFAE6" stroke="black" stroke-width="2"/>
<path d="M150.04 59.4813L151.234 70.2751L159.342 70.2831L165.374 73.8413L167.14 81.482L169.177 89.0353L171.031 96.6443L173.172 104.229L172.686 112.855L171.986 121.433L171.509 130.027L171.007 138.62L169.79 145.665L165.23 151.05L158.984 154.347L151.703 156.181L151.918 163.036L160.52 163.48L169.376 163.846L178.24 163.155L187.097 164.092L195.961 163.798L205.04 163.854L203.393 154.617L192.905 150.058L192.165 141.988L191.155 133.648L189.245 125.436L188.64 117.049L187.12 108.78L185.696 100.512L184.057 92.2838L184.829 85.3738L185.179 78.4559L185.465 71.8001L192.722 70.6087L200.361 70.704L201.682 59.0921L192.921 59.4018L184.328 59.7672L175.718 59.648L167.116 59.2748L158.514 59.5448L150.04 59.4813Z" fill="#FEFAE6" stroke="black" stroke-width="2"/>
<path d="M210.671 59.7184L219.666 59.2665L228.873 59.0921L237.783 59.7977L232.459 64.4598L226.321 68.7017L220.582 73.5144L218.241 80.0556L216.449 87.0884L222.485 81.4431L228.646 76.4242L235.035 71.6829L241.142 66.5926L247.053 61.32L252.001 66.775L257.982 71.1992L263.126 76.5194L268.019 82.1091L274.04 86.9932L268.082 92.2975L262.061 97.0468L256.557 102.375L251.101 107.949L241.854 105.539L248.399 98.5929L251.14 89.2291L245.291 80.016L239.263 84.1865L232.906 88.0319L226.329 91.5047L220.371 95.9923L213.834 99.8615L218.829 107.013L222.626 114.768L228.036 121.499L232.35 128.92L236.358 136.548L241.173 143.668L245.103 149.321L250.278 153.729L257.066 154.776L258.859 164.068L249.817 163.941L241.056 164.092L232.311 163.68L223.55 163.886L214.914 163.069L212.792 159.303L219.197 156.322L221.608 150.05L217.733 142.986L214.562 135.58L211.234 128.254L207.86 120.944L204.133 113.816L201.205 106.284L197.04 99.2193L200.109 91.2827L202.333 83.1954L205.472 75.4094L207.617 67.2824L210.671 59.7184Z" fill="#FEFAE6" stroke="black" stroke-width="2"/>
<path d="M308.337 59.7315L300.571 59.0921L292.938 59.6841L291.073 66.1575L288.445 72.7256L286.014 80.2015L282.693 87.338L278.9 94.2534L276.257 101.706L272.346 108.566L268.899 115.639L265.76 122.736L258.796 122.634L247.394 120.439L247.04 131.57L255.286 133.733L263.265 136.291L271.276 138.77L279.31 140.506L281.222 133.165L284.062 125.878L286.305 118.607L292.694 120.976L299.273 124.181L306.197 126.533L312.712 129.865L319.409 132.604L323.862 140.83L328.528 149.016L324.295 154.55L317.811 153.548L311.674 153.39L312.626 162.8L320.431 163.092L328.34 162.524L336.248 162.374L344.163 162.492L352.04 162.816L349.451 155.332L345.958 148.14L342.834 140.791L339.434 133.559L336.452 126.154L333.328 118.805L330.771 111.21L327.403 103.956L324.822 96.3691L321.761 88.9879L318.527 81.6857L315.293 74.3834L315.081 69.2047L322.107 68.6916L329.323 68.2732L330.094 59.1236L322.737 59.3842L315.553 59.5973L308.361 59.7157L308.337 59.7315ZM290.373 109.371L293.678 101.485L295.834 93.464L298.564 85.6486L301.956 78.1016L305.386 84.8355L308.203 92.0667L310.47 99.5032L313.885 106.498L316.112 113.713L307.716 112.024L299.186 110.595L290.373 109.371Z" fill="#FEFAE6" stroke="black" stroke-width="2"/>
<path d="M1.08747 2.52791L1.93332 12.3105L9.00842 12.7286L16.0519 12.1606L16.1626 20.531L16.1072 28.7279L15.6725 36.9327L15.3167 45.1374L15.4432 53.3422L15.3167 61.5391L15.4353 69.7438L15.5618 77.9486L15.6487 86.1533L15.5143 94.3581L16.2416 102.563L15.3721 110.768L15.214 118.972L15.3483 127.177L15.4037 135.382L16.0045 143.595L15.8068 151.902L8.23372 151.839L1.04004 152.651L1.18233 162.876L9.9017 162.986L18.7634 163.467L27.6408 163.16L36.5815 163.688L36.5104 155.405L37.3562 147.208L36.9847 138.987L37.7831 130.79L37.0559 122.554L37.6487 114.578L41.1112 121.379L44.8345 128.313L48.4867 135.279L52.3602 142.127L56.3286 148.936L59.3879 156.217L63.7752 162.797L67.0796 169.96L70.6448 177.092L79.127 176.721L87.5223 177.013L95.9175 176.658L104.313 176.942L112.89 177.076L113.04 166.741L105.522 167.223L98.5816 165.495L91.8068 163.041L87.0163 157.59L81.7436 151.066L76.7317 144.328L71.7673 137.551L66.7001 130.861L60.7001 124.897L55.5144 118.294L50.3128 111.699L45.6408 104.685L39.8068 98.2396L45.957 92.7487L51.9649 87.5182L57.7989 82.0983L63.9333 77.0019L69.048 70.8089L74.9294 65.4284L81.0717 60.3399L86.7159 54.707L92.8819 49.5554L92.9689 40.0962L85.8622 39.1811L78.3049 38.5263L70.7317 38.2028L63.1112 38.6367L55.214 37.5954L56.044 49.2556L62.4709 49.9341L69.3879 49.3897L63.6566 54.9358L57.4274 59.6851L51.7594 65.0419L46.1784 70.4854L40.5895 75.9368L35.1191 81.1358L34.5895 73.3728L35.3562 65.3653L35.3879 57.3578L35.2772 49.3503L34.9057 41.3427L35.1665 33.3352L34.9689 25.3277L35.2614 17.3201L35.3009 9.30472L35.1744 1.09207L26.4551 1.8731L17.8938 1.57331L9.35625 2.32279L1.08747 2.52791Z" fill="#FEFAE6" stroke="black" stroke-width="2"/>
</svg>
